<svg width="304" height="193" viewBox="0 0 304 193" fill="none" xmlns="http://www.w3.org/2000/svg">
<path d="M5.41777 167.475C2.42562 167.298 0.143991 164.728 0.321613 161.736L0.971987 150.78C4.46128 92.0008 54.9398 47.1795 113.719 50.6688C122.762 51.2056 129.658 58.9716 129.121 68.0145C125.631 126.794 75.1529 171.615 16.3737 168.126L5.41777 167.475Z" fill="#208163"/>
<path d="M297.255 150.274C300.869 149.208 302.935 145.413 301.868 141.799L297.964 128.564C277.019 57.5602 202.479 16.9799 131.475 37.9256C120.551 41.148 114.308 52.6156 117.531 63.5393C138.476 134.543 213.016 175.124 284.02 154.178L297.255 150.274Z" fill="#8DC593"/>
</svg>