<svg width="189" height="123" viewBox="0 0 189 123" fill="none" xmlns="http://www.w3.org/2000/svg">
<path d="M123 117.574C123 120.57 120.57 123 117.574 123L106.6 123C47.7264 123 -3.45702e-06 75.2735 1.68987e-06 16.4C2.4817e-06 7.34253 7.34253 -2.4817e-06 16.4 -1.68987e-06C75.2736 3.45701e-06 123 47.7265 123 106.6L123 117.574Z" fill="#8DC593"/>
<path d="M105.837 119.34C105.837 121.361 107.476 123 109.497 123L116.898 123C156.603 123 188.791 90.8124 188.791 51.107C188.791 44.9985 183.839 40.0465 177.73 40.0465C138.025 40.0465 105.837 72.2341 105.837 111.94L105.837 119.34Z" fill="#208163"/>
</svg>