<svg width="149" height="145" viewBox="0 0 149 145" fill="none" xmlns="http://www.w3.org/2000/svg">
<path d="M147.902 15.2765C148.179 13.1321 146.666 11.1686 144.521 10.891L136.67 9.87452C94.5436 4.42096 55.9727 34.1498 50.5192 76.2758C49.6802 82.7568 54.2538 88.6907 60.7348 89.5297C102.861 94.9833 141.432 65.2544 146.885 23.1284L147.902 15.2765Z" fill="#8DC593"/>
<path d="M0.305847 45.7553C0.136932 44.4505 1.05773 43.2558 2.36252 43.0869L7.14005 42.4684C32.7717 39.1502 56.2403 57.2388 59.5586 82.8705C60.0691 86.8139 57.2862 90.4244 53.3428 90.9349C27.7111 94.2532 4.24257 76.1645 0.924338 50.5328L0.305847 45.7553Z" fill="#8DC593"/>
<rect x="50.9999" y="83" width="10" height="62" rx="5" fill="#5FB49C"/>
</svg>