<svg width="171" height="191" viewBox="0 0 171 191" fill="none" xmlns="http://www.w3.org/2000/svg">
<path d="M58.448 162.353C57.8486 164.179 58.8432 166.146 60.6695 166.745L67.3567 168.94C103.234 180.714 141.863 161.176 153.638 125.299C155.449 119.779 152.443 113.836 146.924 112.025C111.047 100.25 72.4174 119.789 60.6427 155.666L58.448 162.353Z" fill="#208163"/>
<path d="M58.3271 165.619C59.8138 168.286 63.1805 169.242 65.8468 167.755L75.6096 162.311C127.987 133.105 146.77 66.9677 117.564 14.5904C113.071 6.53237 102.896 3.64258 94.8376 8.1359C42.4602 37.3425 23.6767 103.479 52.8833 155.857L58.3271 165.619Z" fill="#8DC593"/>
</svg>