<svg width="93" height="114" viewBox="0 0 93 114" fill="none" xmlns="http://www.w3.org/2000/svg">
<path d="M66.9999 89.3284L70.4692 92.1943L66.9999 89.3284ZM87 51.3284L91.4415 50.6053L87 51.3284ZM58.2692 30.1745C55.9751 31.1304 54.8902 33.765 55.8461 36.0591C56.802 38.3533 59.4366 39.4381 61.7307 38.4822L58.2692 30.1745ZM70.0948 106.562C69.1316 105.649 67.7917 103.698 67.41 101.219C67.0598 98.9436 67.4501 95.8491 70.4692 92.1943L63.5306 86.4624C58.9497 92.0077 57.7567 97.6631 58.5148 102.588C59.2415 107.309 61.7016 111.008 63.9051 113.095L70.0948 106.562ZM70.4692 92.1943C72.6273 89.5819 75.0644 87.3091 77.696 84.8519C80.2519 82.4654 83.0353 79.8663 85.4048 76.8695C90.4219 70.5244 93.3989 62.6294 91.4415 50.6053L82.5584 52.0514C84.1011 61.5276 81.828 66.8825 78.3451 71.2874C76.4646 73.6656 74.1854 75.8165 71.5538 78.2737C68.9979 80.6602 66.1225 83.3248 63.5306 86.4624L70.4692 92.1943ZM91.4415 50.6053C89.5197 38.7997 83.2363 32.4983 76.0008 29.9229C69.2155 27.5078 62.1421 28.5608 58.2692 30.1745L61.7307 38.4822C63.8578 37.596 68.6069 36.8443 72.9829 38.4018C76.9087 39.7992 81.1253 43.2478 82.5584 52.0514L91.4415 50.6053Z" fill="#5FB49C"/>
<path d="M0.79864 58.3768C0.357606 59.4825 0.896407 60.7363 2.00209 61.1773L6.0506 62.7922C27.7711 71.4561 52.4025 60.8716 61.0664 39.1512C62.3993 35.8096 60.7709 32.0201 57.4293 30.6872C35.7088 22.0233 11.0774 32.6078 2.41352 54.3283L0.79864 58.3768Z" fill="#8DC593"/>
<path d="M20.7055 3.72586C19.7635 3.82084 19.0769 4.66144 19.1719 5.60341L19.5196 9.05248C21.3853 27.5569 37.8985 41.0452 56.4029 39.1796C59.2498 38.8925 61.3249 36.352 61.0379 33.5052C59.1722 15.0008 42.659 1.51244 24.1546 3.37812L20.7055 3.72586Z" fill="#8DC593"/>
</svg>